<svg width="512" height="492" viewBox="0 0 512 492" fill="none" xmlns="http://www.w3.org/2000/svg">
<path d="M2.5 201.1C1 213.1 0 225.3 0 237.7C0 346.7 59.7 441.6 148.1 491.9L164.6 457.1V219.4L146.3 201.1H2.5ZM512 219.4C512 201.1 493.7 182.8 475.4 182.8H329.1C338.2 146.2 347.4 109.7 347.4 91.4C347.4 54.8 329.1 18.3 320 9.1C319.8 8.9 310.9 0 292.6 0C265.2 0 265.2 27.4 265.2 27.4C265.2 27.9 256.1 73.1 256.1 91.4C256.1 109.7 219.5 182.8 201.2 201.1L182.9 210.2V466.2L201.2 475.3H402.3C438.9 475.3 457.2 457 457.2 438.7C457.2 420.4 438.9 402.1 420.6 402.1C457.2 402.1 475.5 383.8 475.5 365.5C475.5 347.2 457.2 328.9 438.9 328.9C475.5 328.9 493.8 310.6 493.8 292.3C493.8 274 475.5 255.7 457.2 255.7C493.7 256 512 237.7 512 219.4Z" fill="white"/>
</svg>
